<svg width="4000" height="2667" viewBox="0 0 4000 2667" fill="none" xmlns="http://www.w3.org/2000/svg">
<path d="M3141.29 1115.53C2997.27 1058.68 2947.01 262.747 2307.27 660.72C2169.51 746.413 1998.92 729.56 1815.76 712.693C1660.67 698.413 1496.53 684.147 1335.68 732.147C1013.49 828.28 1015.64 1102.23 1046.81 1205.44C1109.79 1413.92 913.82 1444.95 732.029 1534.52C446.872 1675.03 656.561 2168.83 925.952 2171.19C1195.34 2173.55 3174.51 2166.49 3174.51 2166.49C3174.51 2166.49 3713.08 1341.24 3141.29 1115.53Z" fill="#EBF2F9"/>
<path d="M3021.19 1946.49V2172.55H2911.49V1946.49H3021.19Z" fill="#DCEAF9"/>
<path d="M1279.1 2172.37V1310.72H1407.21V1211.92H1437.21V1042.05H1598V1211.92H1748.33V979.08L1914.23 916.293V1114.81H1952.05V850.44L2117.95 905.427V1302.51H2327.75V1537.04H2406.15V1596.13H2586.2V1494.39H2689.59V1217.91H2817.29V1728.28H2944.99V2172.37H1279.1Z" fill="#D5E7F7"/>
<path d="M1979.09 968.427H2091V927.44H1979.09V968.427Z" fill="#C4D9ED"/>
<path d="M1979.09 1045.41H2091V1004.43H1979.09V1045.41Z" fill="#C4D9ED"/>
<path d="M1979.09 1114.68H2091V1073.69H1979.09V1114.68Z" fill="#C4D9ED"/>
<path d="M2817.23 1406.09V1469.35H2688.4V1406.09H2817.23Z" fill="#C4D9ED"/>
<path d="M2817.23 1663.52H2688.4V1600.27H2817.23V1663.52Z" fill="#C4D9ED"/>
<path d="M2817.23 1759.08H2688.4V1695.83H2817.23V1759.08Z" fill="#C4D9ED"/>
<path d="M2688.4 1859.05H2817.23V1795.79H2688.4V1859.05Z" fill="#C4D9ED"/>
<path d="M2817.23 1956.96H2688.4V1893.71H2817.23V1956.96Z" fill="#C4D9ED"/>
<path d="M2688.4 2056.93H2817.23V1993.67H2688.4V2056.93Z" fill="#C4D9ED"/>
<path d="M1772.52 1073.69H1890.23V1114.68H1772.52V1073.69Z" fill="#C4D9ED"/>
<path d="M1772.52 1005.05H1890.23V1046.04H1772.52V1005.05Z" fill="#C4D9ED"/>
<path d="M2093.85 1140.85V1181.84H1772.52V1140.85H2093.85Z" fill="#C4D9ED"/>
<path d="M2093.85 1243.45H1772.52V1202.48H2093.85V1243.45Z" fill="#C4D9ED"/>
<path d="M2093.85 1303.09H1772.52V1263.68H2093.85V1303.09Z" fill="#C4D9ED"/>
<path d="M2817.23 1567.96H2688.4V1504.71H2817.23V1567.96Z" fill="#C4D9ED"/>
<path d="M2293.47 1382.49H2265.35V1342.85H2293.47V1382.49Z" fill="#C4D9ED"/>
<path d="M2240.88 1382.49H2212.76V1342.85H2240.88V1382.49Z" fill="#C4D9ED"/>
<path d="M2189.47 1382.49H2161.35V1342.85H2189.47V1382.49Z" fill="#C4D9ED"/>
<path d="M2140.72 1382.49H2112.6V1342.85H2140.72V1382.49Z" fill="#C4D9ED"/>
<path d="M2091.04 1382.49H2062.92V1342.85H2091.04V1382.49Z" fill="#C4D9ED"/>
<path d="M2040.79 1382.49H2012.67V1342.85H2040.79V1382.49Z" fill="#C4D9ED"/>
<path d="M1988.2 1382.49H1960.08V1342.85H1988.2V1382.49Z" fill="#C4D9ED"/>
<path d="M1936.79 1382.49H1908.67V1342.85H1936.79V1382.49Z" fill="#C4D9ED"/>
<path d="M1888.04 1382.49H1859.92V1342.85H1888.04V1382.49Z" fill="#C4D9ED"/>
<path d="M1838.36 1382.49H1810.24V1342.85H1838.36V1382.49Z" fill="#C4D9ED"/>
<path d="M1786.59 1382.49H1758.47V1342.85H1786.59V1382.49Z" fill="#C4D9ED"/>
<path d="M1734 1382.49H1705.88V1342.85H1734V1382.49Z" fill="#C4D9ED"/>
<path d="M1682.59 1382.49H1654.47V1342.85H1682.59V1382.49Z" fill="#C4D9ED"/>
<path d="M1633.84 1382.49H1605.72V1342.85H1633.84V1382.49Z" fill="#C4D9ED"/>
<path d="M1584.16 1382.49H1556.04V1342.85H1584.16V1382.49Z" fill="#C4D9ED"/>
<path d="M1533.91 1382.49H1505.79V1342.85H1533.91V1382.49Z" fill="#C4D9ED"/>
<path d="M1481.32 1382.49H1453.2V1342.85H1481.32V1382.49Z" fill="#C4D9ED"/>
<path d="M1429.91 1382.49H1401.79V1342.85H1429.91V1382.49Z" fill="#C4D9ED"/>
<path d="M1381.16 1382.49H1353.04V1342.85H1381.16V1382.49Z" fill="#C4D9ED"/>
<path d="M1331.48 1342.85V1382.49H1303.35V1342.85H1331.48Z" fill="#C4D9ED"/>
<path d="M2293.47 1452.44H2265.35V1412.8H2293.47V1452.44Z" fill="#C4D9ED"/>
<path d="M2240.88 1452.44H2212.76V1412.8H2240.88V1452.44Z" fill="#C4D9ED"/>
<path d="M2189.47 1452.44H2161.35V1412.8H2189.47V1452.44Z" fill="#C4D9ED"/>
<path d="M2140.72 1452.44H2112.6V1412.8H2140.72V1452.44Z" fill="#C4D9ED"/>
<path d="M2091.04 1452.44H2062.92V1412.8H2091.04V1452.44Z" fill="#C4D9ED"/>
<path d="M2040.79 1452.44H2012.67V1412.8H2040.79V1452.44Z" fill="#C4D9ED"/>
<path d="M1988.2 1452.44H1960.08V1412.8H1988.2V1452.44Z" fill="#C4D9ED"/>
<path d="M1936.79 1452.44H1908.67V1412.8H1936.79V1452.44Z" fill="#C4D9ED"/>
<path d="M1888.04 1452.44H1859.92V1412.8H1888.04V1452.44Z" fill="#C4D9ED"/>
<path d="M1838.36 1452.44H1810.24V1412.8H1838.36V1452.44Z" fill="#C4D9ED"/>
<path d="M1786.59 1452.44H1758.47V1412.8H1786.59V1452.44Z" fill="#C4D9ED"/>
<path d="M1734 1452.44H1705.88V1412.8H1734V1452.44Z" fill="#C4D9ED"/>
<path d="M1682.59 1452.44H1654.47V1412.8H1682.59V1452.44Z" fill="#C4D9ED"/>
<path d="M1633.84 1452.44H1605.72V1412.8H1633.84V1452.44Z" fill="#C4D9ED"/>
<path d="M1584.16 1452.44H1556.04V1412.8H1584.16V1452.44Z" fill="#C4D9ED"/>
<path d="M1533.91 1452.44H1505.79V1412.8H1533.91V1452.44Z" fill="#C4D9ED"/>
<path d="M1481.32 1452.44H1453.2V1412.8H1481.32V1452.44Z" fill="#C4D9ED"/>
<path d="M1429.91 1452.44H1401.79V1412.8H1429.91V1452.44Z" fill="#C4D9ED"/>
<path d="M1381.16 1452.44H1353.04V1412.8H1381.16V1452.44Z" fill="#C4D9ED"/>
<path d="M1331.48 1452.44H1303.35V1412.8H1331.48V1452.44Z" fill="#C4D9ED"/>
<path d="M2293.47 1521.32H2265.35V1481.68H2293.47V1521.32Z" fill="#C4D9ED"/>
<path d="M2240.88 1521.32H2212.76V1481.68H2240.88V1521.32Z" fill="#C4D9ED"/>
<path d="M2189.47 1521.32H2161.35V1481.68H2189.47V1521.32Z" fill="#C4D9ED"/>
<path d="M2140.72 1521.32H2112.6V1481.68H2140.72V1521.32Z" fill="#C4D9ED"/>
<path d="M2091.04 1521.32H2062.92V1481.68H2091.04V1521.32Z" fill="#C4D9ED"/>
<path d="M2040.79 1521.32H2012.67V1481.68H2040.79V1521.32Z" fill="#C4D9ED"/>
<path d="M1988.2 1521.32H1960.08V1481.68H1988.2V1521.32Z" fill="#C4D9ED"/>
<path d="M1936.79 1521.32H1908.67V1481.68H1936.79V1521.32Z" fill="#C4D9ED"/>
<path d="M1888.04 1521.32H1859.92V1481.68H1888.04V1521.32Z" fill="#C4D9ED"/>
<path d="M1838.36 1521.32H1810.24V1481.68H1838.36V1521.32Z" fill="#C4D9ED"/>
<path d="M1786.59 1521.32H1758.47V1481.68H1786.59V1521.32Z" fill="#C4D9ED"/>
<path d="M1734 1521.32H1705.88V1481.68H1734V1521.32Z" fill="#C4D9ED"/>
<path d="M1682.59 1521.32H1654.47V1481.68H1682.59V1521.32Z" fill="#C4D9ED"/>
<path d="M1633.84 1521.32H1605.72V1481.68H1633.84V1521.32Z" fill="#C4D9ED"/>
<path d="M1584.16 1521.32H1556.04V1481.68H1584.16V1521.32Z" fill="#C4D9ED"/>
<path d="M1533.91 1521.32H1505.79V1481.68H1533.91V1521.32Z" fill="#C4D9ED"/>
<path d="M1481.32 1521.32H1453.2V1481.68H1481.32V1521.32Z" fill="#C4D9ED"/>
<path d="M1429.91 1521.32H1401.79V1481.68H1429.91V1521.32Z" fill="#C4D9ED"/>
<path d="M1381.16 1521.32H1353.04V1481.68H1381.16V1521.32Z" fill="#C4D9ED"/>
<path d="M1331.48 1521.32H1303.35V1481.68H1331.48V1521.32Z" fill="#C4D9ED"/>
<path d="M2293.47 1594.51H2265.35V1554.87H2293.47V1594.51Z" fill="#C4D9ED"/>
<path d="M2240.88 1594.51H2212.76V1554.87H2240.88V1594.51Z" fill="#C4D9ED"/>
<path d="M2189.47 1594.51H2161.35V1554.87H2189.47V1594.51Z" fill="#C4D9ED"/>
<path d="M2140.72 1594.51H2112.6V1554.87H2140.72V1594.51Z" fill="#C4D9ED"/>
<path d="M2091.04 1594.51H2062.92V1554.87H2091.04V1594.51Z" fill="#C4D9ED"/>
<path d="M2040.79 1594.51H2012.67V1554.87H2040.79V1594.51Z" fill="#C4D9ED"/>
<path d="M1988.2 1594.51H1960.08V1554.87H1988.2V1594.51Z" fill="#C4D9ED"/>
<path d="M1936.79 1594.51H1908.67V1554.87H1936.79V1594.51Z" fill="#C4D9ED"/>
<path d="M1888.04 1594.51H1859.92V1554.87H1888.04V1594.51Z" fill="#C4D9ED"/>
<path d="M1838.36 1594.51H1810.24V1554.87H1838.36V1594.51Z" fill="#C4D9ED"/>
<path d="M1786.59 1594.51H1758.47V1554.87H1786.59V1594.51Z" fill="#C4D9ED"/>
<path d="M1734 1594.51H1705.88V1554.87H1734V1594.51Z" fill="#C4D9ED"/>
<path d="M1682.59 1594.51H1654.47V1554.87H1682.59V1594.51Z" fill="#C4D9ED"/>
<path d="M1633.84 1594.51H1605.72V1554.87H1633.84V1594.51Z" fill="#C4D9ED"/>
<path d="M1584.16 1594.51H1556.04V1554.87H1584.16V1594.51Z" fill="#C4D9ED"/>
<path d="M1533.91 1594.51H1505.79V1554.87H1533.91V1594.51Z" fill="#C4D9ED"/>
<path d="M1481.32 1594.51H1453.2V1554.87H1481.32V1594.51Z" fill="#C4D9ED"/>
<path d="M1429.91 1594.51H1401.79V1554.87H1429.91V1594.51Z" fill="#C4D9ED"/>
<path d="M1381.16 1594.51H1353.04V1554.87H1381.16V1594.51Z" fill="#C4D9ED"/>
<path d="M1331.48 1594.51H1303.35V1554.87H1331.48V1594.51Z" fill="#C4D9ED"/>
<path d="M2293.47 1664.45H2265.35V1624.81H2293.47V1664.45Z" fill="#C4D9ED"/>
<path d="M2240.88 1664.45H2212.76V1624.81H2240.88V1664.45Z" fill="#C4D9ED"/>
<path d="M2189.47 1664.45H2161.35V1624.81H2189.47V1664.45Z" fill="#C4D9ED"/>
<path d="M2140.72 1664.45H2112.6V1624.81H2140.72V1664.45Z" fill="#C4D9ED"/>
<path d="M2091.04 1664.45H2062.92V1624.81H2091.04V1664.45Z" fill="#C4D9ED"/>
<path d="M2040.79 1664.45H2012.67V1624.81H2040.79V1664.45Z" fill="#C4D9ED"/>
<path d="M1988.2 1664.45H1960.08V1624.81H1988.2V1664.45Z" fill="#C4D9ED"/>
<path d="M1936.79 1664.45H1908.67V1624.81H1936.79V1664.45Z" fill="#C4D9ED"/>
<path d="M1888.04 1664.45H1859.92V1624.81H1888.04V1664.45Z" fill="#C4D9ED"/>
<path d="M1838.36 1664.45H1810.24V1624.81H1838.36V1664.45Z" fill="#C4D9ED"/>
<path d="M1786.59 1664.45H1758.47V1624.81H1786.59V1664.45Z" fill="#C4D9ED"/>
<path d="M1734 1664.45H1705.88V1624.81H1734V1664.45Z" fill="#C4D9ED"/>
<path d="M1682.59 1664.45H1654.47V1624.81H1682.59V1664.45Z" fill="#C4D9ED"/>
<path d="M1633.84 1664.45H1605.72V1624.81H1633.84V1664.45Z" fill="#C4D9ED"/>
<path d="M1584.16 1664.45H1556.04V1624.81H1584.16V1664.45Z" fill="#C4D9ED"/>
<path d="M1533.91 1664.45H1505.79V1624.81H1533.91V1664.45Z" fill="#C4D9ED"/>
<path d="M1481.32 1664.45H1453.2V1624.81H1481.32V1664.45Z" fill="#C4D9ED"/>
<path d="M1381.16 1664.45H1353.04V1624.81H1381.16V1664.45Z" fill="#C4D9ED"/>
<path d="M1429.91 1664.45H1401.79V1624.81H1429.91V1664.45Z" fill="#C4D9ED"/>
<path d="M1331.48 1664.45H1303.35V1624.81H1331.48V1664.45Z" fill="#C4D9ED"/>
<path d="M2293.47 1733.32H2265.35V1693.68H2293.47V1733.32Z" fill="#C4D9ED"/>
<path d="M2240.88 1733.32H2212.76V1693.68H2240.88V1733.32Z" fill="#C4D9ED"/>
<path d="M2189.47 1733.32H2161.35V1693.68H2189.47V1733.32Z" fill="#C4D9ED"/>
<path d="M2140.72 1733.32H2112.6V1693.68H2140.72V1733.32Z" fill="#C4D9ED"/>
<path d="M2091.04 1733.32H2062.92V1693.68H2091.04V1733.32Z" fill="#C4D9ED"/>
<path d="M2040.79 1733.32H2012.67V1693.68H2040.79V1733.32Z" fill="#C4D9ED"/>
<path d="M1988.2 1733.32H1960.08V1693.68H1988.2V1733.32Z" fill="#C4D9ED"/>
<path d="M1936.79 1733.32H1908.67V1693.68H1936.79V1733.32Z" fill="#C4D9ED"/>
<path d="M1888.04 1733.32H1859.92V1693.68H1888.04V1733.32Z" fill="#C4D9ED"/>
<path d="M1838.36 1733.32H1810.24V1693.68H1838.36V1733.32Z" fill="#C4D9ED"/>
<path d="M1786.59 1733.32H1758.47V1693.68H1786.59V1733.32Z" fill="#C4D9ED"/>
<path d="M1734 1733.32H1705.88V1693.68H1734V1733.32Z" fill="#C4D9ED"/>
<path d="M1682.59 1733.32H1654.47V1693.68H1682.59V1733.32Z" fill="#C4D9ED"/>
<path d="M1633.84 1733.32H1605.72V1693.68H1633.84V1733.32Z" fill="#C4D9ED"/>
<path d="M1584.16 1733.32H1556.04V1693.68H1584.16V1733.32Z" fill="#C4D9ED"/>
<path d="M1533.91 1733.32H1505.79V1693.68H1533.91V1733.32Z" fill="#C4D9ED"/>
<path d="M1481.32 1733.32H1453.2V1693.68H1481.32V1733.32Z" fill="#C4D9ED"/>
<path d="M1381.16 1733.32H1353.04V1693.68H1381.16V1733.32Z" fill="#C4D9ED"/>
<path d="M1331.48 1733.32H1303.35V1693.68H1331.48V1733.32Z" fill="#C4D9ED"/>
<path d="M1067.61 1615.33V2038.59H1005.05V1615.33H1067.61Z" fill="#C4D9ED"/>
<path d="M1067.61 2166.65H1134.77V1872.67H1067.61V2166.65Z" fill="#ADC9E0"/>
<path d="M2540.44 1494.39V1411.93H2537.05V1494.39H2490.65V1596.13H2586.2V1494.39H2540.44" fill="#C4D9ED"/>
<path d="M2817.23 1281.2V1217.95H2791.59V1190.41H2788.2V1217.95H2690.19H2688.4H2669.87V1190.41H2666.48V1217.95H2642.69V2002.04H2690.19V1375.28H2817.23V1312.01H2690.19V1281.2H2817.23" fill="#C4D9ED"/>
<path d="M1426.36 1676.93V2033.73H1067.61V1615.33L1426.36 1676.93Z" fill="#D5E7F7"/>
<path d="M1426.36 2172.55H978.809V1871.56H1426.36V2172.55Z" fill="#D5E7F7"/>
<path d="M1426.36 1791.25H978.809V1693.43H1426.36V1791.25Z" fill="#C4D9ED"/>
<path d="M1395.88 1985.57H1372.89V1953.17H1395.88V1985.57Z" fill="#C4D9ED"/>
<path d="M1352.91 1985.57H1329.91V1953.17H1352.91V1985.57Z" fill="#C4D9ED"/>
<path d="M1310.88 1985.57H1287.89V1953.17H1310.88V1985.57Z" fill="#C4D9ED"/>
<path d="M1271.04 1985.57H1248.05V1953.17H1271.04V1985.57" fill="#C4D9ED"/>
<path d="M1230.43 1985.57H1207.45V1953.17H1230.43V1985.57Z" fill="#C4D9ED"/>
<path d="M1189.36 1985.57H1166.38V1953.17H1189.36V1985.57Z" fill="#C4D9ED"/>
<path d="M1146.38 1985.57H1123.39V1953.17H1146.38V1985.57Z" fill="#C4D9ED"/>
<path d="M1104.36 1985.57H1081.37V1953.17H1104.36V1985.57Z" fill="#C4D9ED"/>
<path d="M1064.52 1985.57H1041.53V1953.17H1064.52V1985.57Z" fill="#C4D9ED"/>
<path d="M1023.91 1953.17V1985.57H1000.93V1953.17H1023.91Z" fill="#C4D9ED"/>
<path d="M1395.88 2042.73H1372.89V2010.35H1395.88V2042.73Z" fill="#C4D9ED"/>
<path d="M1352.91 2042.73H1329.91V2010.35H1352.91V2042.73Z" fill="#C4D9ED"/>
<path d="M1310.88 2042.73H1287.89V2010.35H1310.88V2042.73Z" fill="#C4D9ED"/>
<path d="M1271.04 2042.73H1248.05V2010.35H1271.04V2042.73" fill="#C4D9ED"/>
<path d="M1230.43 2042.73H1207.45V2010.35H1230.43V2042.73Z" fill="#C4D9ED"/>
<path d="M1189.36 2042.73H1166.38V2010.35H1189.36V2042.73Z" fill="#C4D9ED"/>
<path d="M1146.38 2042.73H1123.39V2010.35H1146.38V2042.73Z" fill="#C4D9ED"/>
<path d="M1104.36 2042.73H1081.37V2010.35H1104.36V2042.73Z" fill="#C4D9ED"/>
<path d="M1064.52 2042.73H1041.53V2010.35H1064.52V2042.73Z" fill="#C4D9ED"/>
<path d="M1023.91 2042.73H1000.93V2010.35H1023.91V2042.73Z" fill="#C4D9ED"/>
<path d="M1395.88 1870.37H1372.89V1837.97H1395.88V1870.37Z" fill="#C4D9ED"/>
<path d="M1352.91 1870.37H1329.91V1837.97H1352.91V1870.37Z" fill="#C4D9ED"/>
<path d="M1310.88 1870.37H1287.89V1837.97H1310.88V1870.37Z" fill="#C4D9ED"/>
<path d="M1271.04 1870.37H1248.05V1837.97H1271.04V1870.37" fill="#C4D9ED"/>
<path d="M1230.43 1870.37H1207.45V1837.97H1230.43V1870.37Z" fill="#C4D9ED"/>
<path d="M1189.36 1870.37H1166.38V1837.97H1189.36V1870.37Z" fill="#C4D9ED"/>
<path d="M1146.38 1870.37H1123.39V1837.97H1146.38V1870.37Z" fill="#C4D9ED"/>
<path d="M1104.36 1870.37H1081.37V1837.97H1104.36V1870.37Z" fill="#C4D9ED"/>
<path d="M1395.88 1927.53H1372.89V1895.15H1395.88V1927.53Z" fill="#C4D9ED"/>
<path d="M1352.91 1927.53H1329.91V1895.15H1352.91V1927.53Z" fill="#C4D9ED"/>
<path d="M1310.88 1927.53H1287.89V1895.15H1310.88V1927.53Z" fill="#C4D9ED"/>
<path d="M1271.04 1927.53H1248.05V1895.15H1271.04V1927.53" fill="#C4D9ED"/>
<path d="M1230.43 1927.53H1207.45V1895.15H1230.43V1927.53Z" fill="#C4D9ED"/>
<path d="M1189.36 1927.53H1166.38V1895.15H1189.36V1927.53Z" fill="#C4D9ED"/>
<path d="M1146.38 1927.53H1123.39V1895.15H1146.38V1927.53Z" fill="#C4D9ED"/>
<path d="M1104.36 1927.53H1081.37V1895.15H1104.36V1927.53Z" fill="#C4D9ED"/>
<path d="M1064.52 1927.53H1041.53V1895.15H1064.52V1927.53Z" fill="#C4D9ED"/>
<path d="M1023.91 1927.53H1000.93V1895.15H1023.91V1927.53Z" fill="#C4D9ED"/>
<path d="M1395.88 2099.03H1372.89V2066.64H1395.88V2099.03Z" fill="#C4D9ED"/>
<path d="M1352.91 2099.03H1329.91V2066.64H1352.91V2099.03Z" fill="#C4D9ED"/>
<path d="M1310.88 2099.03H1287.89V2066.64H1310.88V2099.03Z" fill="#C4D9ED"/>
<path d="M1271.04 2099.03H1248.05V2066.64H1271.04V2099.03" fill="#C4D9ED"/>
<path d="M1230.43 2099.03H1207.45V2066.64H1230.43V2099.03Z" fill="#C4D9ED"/>
<path d="M1189.36 2099.03H1166.38V2066.64H1189.36V2099.03Z" fill="#C4D9ED"/>
<path d="M1146.38 2099.03H1123.39V2066.64H1146.38V2099.03Z" fill="#C4D9ED"/>
<path d="M1104.36 2099.03H1081.37V2066.64H1104.36V2099.03Z" fill="#C4D9ED"/>
<path d="M1064.52 2099.03H1041.53V2066.64H1064.52V2099.03Z" fill="#C4D9ED"/>
<path d="M1023.91 2099.03H1000.93V2066.64H1023.91V2099.03Z" fill="#C4D9ED"/>
<path d="M1098.3 1548.13V1632.97H1091.67V1548.13H1098.3Z" fill="#D5E7F7"/>
<path d="M1392.21 1754.33H1372.89V1720.91H1392.21V1754.33Z" fill="#D5E7F7"/>
<path d="M1200.46 1754.33H1181.14V1720.91H1200.46V1754.33Z" fill="#D5E7F7"/>
<path d="M1047.92 1720.91V1754.33H1028.6V1720.91H1047.92Z" fill="#D5E7F7"/>
<path d="M2642.69 2172.55H1974.13V1795.79H2642.69V2172.55Z" fill="#C4D9ED"/>
<path d="M2033.75 1886.84H1999.4V1834.41H2033.75V1886.84Z" fill="#D5E7F7"/>
<path d="M2094.29 1886.84H2059.96V1834.41H2094.29V1886.84Z" fill="#D5E7F7"/>
<path d="M2155.25 1886.84H2120.92V1834.41H2155.25V1886.84Z" fill="#D5E7F7"/>
<path d="M2215.81 1886.84H2181.47V1834.41H2215.81V1886.84Z" fill="#D5E7F7"/>
<path d="M2278.17 1886.84H2243.84V1834.41H2278.17V1886.84Z" fill="#D5E7F7"/>
<path d="M2338.73 1886.84H2304.39V1834.41H2338.73V1886.84Z" fill="#D5E7F7"/>
<path d="M2523.75 1886.84H2489.41V1834.41H2523.75V1886.84Z" fill="#D5E7F7"/>
<path d="M2584.31 1886.84H2549.96V1834.41H2584.31V1886.84Z" fill="#D5E7F7"/>
<path d="M2033.75 1964.39H1999.4V1911.95H2033.75V1964.39Z" fill="#D5E7F7"/>
<path d="M2094.29 1964.39H2059.96V1911.95H2094.29V1964.39Z" fill="#D5E7F7"/>
<path d="M2155.25 1964.39H2120.92V1911.95H2155.25V1964.39Z" fill="#D5E7F7"/>
<path d="M2215.81 1964.39H2181.47V1911.95H2215.81V1964.39Z" fill="#D5E7F7"/>
<path d="M2278.17 1964.39H2243.84V1911.95H2278.17V1964.39Z" fill="#D5E7F7"/>
<path d="M2338.73 1964.39H2304.39V1911.95H2338.73V1964.39Z" fill="#D5E7F7"/>
<path d="M2399.68 1964.39H2365.35V1911.95H2399.68V1964.39Z" fill="#D5E7F7"/>
<path d="M2460.24 1964.39H2425.89V1911.95H2460.24V1964.39Z" fill="#D5E7F7"/>
<path d="M2523.75 1964.39H2489.41V1911.95H2523.75V1964.39Z" fill="#D5E7F7"/>
<path d="M2584.31 1964.39H2549.96V1911.95H2584.31V1964.39Z" fill="#D5E7F7"/>
<path d="M2033.75 2047.68H1999.4V1995.24H2033.75V2047.68Z" fill="#D5E7F7"/>
<path d="M2094.29 2047.68H2059.96V1995.24H2094.29V2047.68Z" fill="#D5E7F7"/>
<path d="M2155.25 2047.68H2120.92V1995.24H2155.25V2047.68Z" fill="#D5E7F7"/>
<path d="M2215.81 2047.68H2181.47V1995.24H2215.81V2047.68Z" fill="#D5E7F7"/>
<path d="M2278.17 2047.68H2243.84V1995.24H2278.17V2047.68Z" fill="#D5E7F7"/>
<path d="M2338.73 2047.68H2304.39V1995.24H2338.73V2047.68Z" fill="#D5E7F7"/>
<path d="M2399.68 2047.68H2365.35V1995.24H2399.68V2047.68Z" fill="#D5E7F7"/>
<path d="M2460.24 2047.68H2425.89V1995.24H2460.24V2047.68Z" fill="#D5E7F7"/>
<path d="M2523.75 2047.68H2489.41V1995.24H2523.75V2047.68Z" fill="#D5E7F7"/>
<path d="M2584.31 2047.68H2549.96V1995.24H2584.31V2047.68Z" fill="#D5E7F7"/>
<path d="M2033.75 2125.21H1999.4V2072.79H2033.75V2125.21" fill="#D5E7F7"/>
<path d="M2094.29 2125.21H2059.96V2072.79H2094.29V2125.21" fill="#D5E7F7"/>
<path d="M2155.25 2125.21H2120.92V2072.79H2155.25V2125.21" fill="#D5E7F7"/>
<path d="M2215.81 2125.21H2181.47V2072.79H2215.81V2125.21" fill="#D5E7F7"/>
<path d="M2278.17 2125.21H2243.84V2072.79H2278.17V2125.21" fill="#D5E7F7"/>
<path d="M2338.73 2125.21H2304.39V2072.79H2338.73V2125.21" fill="#D5E7F7"/>
<path d="M2399.68 2125.21H2365.35V2072.79H2399.68V2125.21" fill="#D5E7F7"/>
<path d="M2460.24 2125.21H2425.89V2072.79H2460.24V2125.21" fill="#D5E7F7"/>
<path d="M2523.75 2125.21H2489.41V2072.79H2523.75V2125.21" fill="#D5E7F7"/>
<path d="M2396.33 1813H2530.72V1695.83L2396.33 1747.28V1813" fill="#C4D9ED"/>
<path d="M1733.92 2172.55H1426.36V1837.97L1733.92 1944.44V2172.55" fill="#C4D9ED"/>
<path d="M1725.8 1965.87H1434.48V1955.52H1725.8V1965.87Z" fill="#D5E7F7"/>
<path d="M1725.8 1999.09H1434.48V1988.75H1725.8V1999.09Z" fill="#D5E7F7"/>
<path d="M1725.8 2032.32H1434.48V2021.99H1725.8V2032.32Z" fill="#D5E7F7"/>
<path d="M1725.8 2065.55H1434.48V2055.21H1725.8V2065.55Z" fill="#D5E7F7"/>
<path d="M1725.8 2098.79H1434.48V2088.44H1725.8V2098.79Z" fill="#D5E7F7"/>
<path d="M1725.8 2132.01H1434.48V2121.68H1725.8V2132.01Z" fill="#D5E7F7"/>
<path d="M2556.57 1795.79H2530.72V1695.83H2556.57V1795.79Z" fill="#C4D9ED"/>
<path d="M2449.91 1780.32V1745.99H2502.33V1780.32H2449.91Z" fill="#D5E7F7"/>
<path d="M1471.69 1209.12H1453.87V1057.92H1471.69V1209.12Z" fill="#C4D9ED"/>
<path d="M1507.13 1209.12H1489.31V1057.92H1507.13V1209.12Z" fill="#C4D9ED"/>
<path d="M1542.09 1209.12H1524.28V1057.92H1542.09V1209.12Z" fill="#C4D9ED"/>
<path d="M1578.29 1209.12H1560.47V1057.92H1578.29V1209.12Z" fill="#C4D9ED"/>
<path d="M638 2168.81H1426.36C1426.36 2168.81 1386 1995.44 1210 2022.05C1034 2048.67 962.667 2195.89 873.333 2093.61C784 1991.33 638 2168.81 638 2168.81Z" fill="#A8D29F"/>
<path d="M1661.99 1669.37C1807.95 1704.84 1924.68 1876.77 1991 1998.97C1999.05 1990.28 2006.39 1980.11 2013.45 1969.05C1985.47 1905.71 1931.19 1769.63 1983.75 1774.16C2029.48 1778.12 2033.83 1872.72 2031.68 1938.53C2068.83 1874.08 2110.8 1799.37 2229.79 1804.13C2426.67 1812 2487.39 2016.75 2624.12 2012.79C2760.85 2008.81 3178.52 1956.57 3260.76 2166.85H1821.4C1826.11 2153.93 1834.37 2101.87 1872.84 2064.08C1865.8 2061.68 1858.49 2059.24 1850.89 2056.77C1728.92 2017.05 1774.52 1975.95 1774.52 1975.95C1831.73 1975.95 1884.07 2001.64 1925.81 2031.83C1931.75 2029.84 1938.01 2028.15 1944.67 2026.79C1952.15 2025.25 1959.01 2022.71 1965.39 2019.32C1893.19 1936.36 1789.13 1830.6 1707.73 1803.87C1652.04 1785.57 1624.11 1760.53 1610.83 1736.61C1591.19 1701.28 1622.71 1659.83 1661.99 1669.37" fill="#A8D29F"/>
<path d="M2065.25 2167.56H1319.8C1296.43 2167.56 1277.31 2148.44 1277.31 2125.07V634.32C1277.31 610.947 1296.43 591.827 1319.8 591.827H2065.25C2088.63 591.827 2107.75 610.947 2107.75 634.32V2125.07C2107.75 2148.44 2088.63 2167.56 2065.25 2167.56Z" fill="#003265"/>
<path d="M2145.76 2167.56H1400.31C1376.93 2167.56 1357.8 2148.44 1357.8 2125.07V634.32C1357.8 610.947 1376.93 591.827 1400.31 591.827H2145.76C2169.13 591.827 2188.25 610.947 2188.25 634.32V2125.07C2188.25 2148.44 2169.13 2167.56 2145.76 2167.56Z" fill="#004183"/>
<path d="M1894.73 668.267H1678.85C1674.24 668.267 1670.45 664.493 1670.45 659.867C1670.45 655.253 1674.24 651.467 1678.85 651.467H1894.73C1899.35 651.467 1903.13 655.253 1903.13 659.867C1903.13 664.493 1899.35 668.267 1894.73 668.267Z" fill="#006FE0"/>
<path d="M1640.52 668.267C1635.89 668.267 1632.12 664.493 1632.12 659.867C1632.12 655.253 1635.89 651.467 1640.52 651.467C1645.13 651.467 1648.92 655.253 1648.92 659.867C1648.92 664.493 1645.13 668.267 1640.52 668.267Z" fill="#006FE0"/>
<path d="M1783.31 2134.67C1753.4 2134.67 1729.15 2110.41 1729.15 2080.49C1729.15 2050.59 1753.4 2026.33 1783.31 2026.33C1813.23 2026.33 1837.48 2050.59 1837.48 2080.49C1837.48 2110.41 1813.23 2134.67 1783.31 2134.67Z" fill="#006FE0"/>
<path d="M2117.37 1991.29H1426.93V716.773H2117.37V1991.29Z" fill="#D5E7F7"/>
<path d="M2117.37 1991.39H1426.93V1843.44H2117.37V1991.39Z" fill="#D5E7F7"/>
<path d="M1772.97 1129.92L1659.27 1191.16C1644.35 1199.2 1625.83 1194.11 1617.11 1179.56L1578.36 1114.91C1598.61 1104.71 1636.92 1084.07 1711.91 1041.57C1761.92 1013.23 1810.89 984.973 1833.93 971.64C1851.71 991.973 1877.83 1004.83 1906.89 1004.83C1918.63 1004.83 1929.88 1002.73 1940.31 998.893C1950.35 1014.67 1969.2 1046.01 1986.15 1083.87C2007.99 1132.61 2031.16 1202.47 2017.55 1258.47C2010.95 1285.6 1996.53 1306.88 1973.68 1323.09L1872.19 1156.77C1851.51 1122.88 1807.93 1111.09 1772.97 1129.92ZM1906.89 851.16C1938.17 851.16 1963.61 876.613 1963.61 907.893C1963.61 939.173 1938.17 964.627 1906.89 964.627C1875.61 964.627 1850.16 939.173 1850.16 907.893C1850.16 876.613 1875.61 851.16 1906.89 851.16ZM2137.99 1592.36L1994.65 1357.47C2026.71 1335.49 2047.52 1305.45 2056.63 1267.89C2082.97 1159.33 2001.45 1019.79 1974.36 977.427C1992.52 959.8 2003.83 935.147 2003.83 907.893C2003.83 854.44 1960.33 810.96 1906.89 810.96C1853.44 810.96 1809.96 854.44 1809.96 907.893C1809.96 917.867 1811.47 927.507 1814.28 936.573C1710.01 997 1597.45 1060.56 1557.67 1080.4L1418.84 848.04C1413.13 838.52 1420.36 868.814 1410.84 874.52C1401.31 880.227 1398.21 892.573 1403.92 902.093L1582.63 1200.24C1602.41 1233.25 1644.45 1244.81 1678.33 1226.56L1792.04 1165.31C1808.19 1156.61 1828.32 1162.07 1837.87 1177.72L1938.71 1342.96C1735.91 1450.45 1444.56 1603.77 1422.09 1612.53C1412 1615.56 1405.88 1625.99 1408.33 1636.39C1410.52 1645.65 1396.95 1666.59 1406.07 1666.59C1407.59 1666.59 1399.51 1665.73 1401.07 1665.37C1406.17 1664.17 1445.33 1648.32 1713 1507.57C1816.73 1453.04 1920.23 1398.25 1959.68 1377.35L2137.07 1666.04C2140.85 1672.25 2114.07 1622.95 2120.85 1622.95C2124.41 1622.95 2128.03 1621.99 2131.29 1620C2140.77 1614.21 2143.77 1601.84 2137.99 1592.36" fill="#004183"/>
<path d="M1970.07 876.84C1967.99 876.84 1965.97 875.747 1964.89 873.813C1963.31 870.96 1964.32 867.36 1967.17 865.76L2126.83 776.587C2129.68 774.987 2133.28 776.014 2134.87 778.854C2136.47 781.707 2135.44 785.307 2132.6 786.907L1972.95 876.093C1972.03 876.6 1971.04 876.84 1970.07 876.84Z" fill="#004183"/>
<path d="M1866.09 850.333C1864.19 850.333 1862.32 849.413 1861.17 847.72L1802.77 761C1800.95 758.293 1801.67 754.613 1804.37 752.787C1807.08 750.973 1810.76 751.68 1812.59 754.387L1870.99 841.12C1872.81 843.827 1872.09 847.493 1869.39 849.32C1868.37 850 1867.23 850.333 1866.09 850.333Z" fill="#004183"/>
<path d="M1878.87 907.893C1878.87 892.413 1891.41 879.867 1906.89 879.867C1922.36 879.867 1934.91 892.413 1934.91 907.893C1934.91 923.373 1922.36 935.92 1906.89 935.92C1891.41 935.92 1878.87 923.373 1878.87 907.893Z" fill="#004183"/>
<path d="M1771 1841.91L1681.89 1695.87C1658.6 1657.69 1609.71 1644.07 1570.03 1664.69L1427.89 1738.57V1844.03L1771 1841.91Z" fill="#C4D9ED"/>
<path d="M1427.89 1540.57C1427.11 1533.44 1705.93 1389.52 1805.83 1338.2C1824.59 1328.56 1830.88 1304.83 1819.39 1287.15L1814.01 1278.91C1806.8 1267.81 1792.4 1263.93 1780.59 1269.88L1646.17 1337.61C1619.65 1350.97 1587.32 1342.05 1571.41 1316.97L1426.93 1077.8L1427.89 1540.57" fill="#C4D9ED"/>
<path d="M1500.15 839.093L1566.87 953.067C1580.55 976.453 1610.44 984.6 1634.11 971.387L1704.36 932.16C1718.79 924.093 1728.23 909.413 1729.69 892.947C1731.12 876.853 1735 855.76 1744.95 837.8C1753.59 822.213 1753 803.16 1743.71 787.973L1743.68 787.933C1734.64 773.16 1718.55 764.147 1701.23 764.147H1543.12C1504.65 764.147 1480.72 805.893 1500.15 839.093" fill="#C4D9ED"/>
<path d="M2117.37 884.027V1158.01C2101.77 1100.67 2074.45 1049.03 2057.27 1019.92C2048.76 1005.51 2047.63 988.027 2053.73 972.44C2059.52 957.667 2062.37 942.347 2063.73 929.707C2065.67 911.853 2078 896.827 2095.08 891.28L2117.37 884.027" fill="#C4D9ED"/>
<path d="M2091.57 1352.83C2102.96 1339.19 2111.41 1324.45 2117.37 1308.97V1462.79L2086.01 1397.08C2079.05 1382.51 2081.24 1365.23 2091.57 1352.83Z" fill="#C4D9ED"/>
<path d="M2117.37 1720.71V1844.01H1971.17L1815.53 1605.04C1795.55 1574.36 1805.69 1533.17 1837.63 1515.28L1881.47 1490.72C1919.6 1469.36 1967.79 1481.69 1990.97 1518.73L2117.37 1720.71Z" fill="#C4D9ED"/>
<path d="M1653.96 1112.33L1800.03 1033.6C1807.21 1029.72 1815.8 1029.36 1823.29 1032.61C1842.07 1040.79 1880.07 1055.45 1910.23 1055.29C1920.48 1055.24 1929.85 1061.08 1934.33 1070.31C1945.27 1092.8 1964.15 1134.56 1974.44 1174.08C1981.87 1202.61 1944.21 1220.23 1927 1196.29L1861.49 1105.13C1854.24 1095.04 1840.97 1091.31 1829.52 1096.12L1676.95 1160.35C1664.47 1165.59 1650.04 1160.65 1643.4 1148.87C1636.08 1135.87 1640.84 1119.41 1653.96 1112.33" fill="#C4D9ED"/>
<path d="M1951.2 1880.64H1594.87C1590.75 1880.64 1587.37 1884.01 1587.37 1888.13C1587.37 1892.25 1590.75 1895.61 1594.87 1895.61H1951.2C1955.32 1895.61 1958.69 1892.25 1958.69 1888.13C1958.69 1884.01 1955.32 1880.64 1951.2 1880.64Z" fill="#699FF0"/>
<path d="M1951.2 1913.45H1594.87C1590.75 1913.45 1587.37 1916.83 1587.37 1920.95C1587.37 1925.07 1590.75 1928.43 1594.87 1928.43H1951.2C1955.32 1928.43 1958.69 1925.07 1958.69 1920.95C1958.69 1916.83 1955.32 1913.45 1951.2 1913.45Z" fill="#699FF0"/>
<path d="M1498.84 1905.79C1490.61 1905.79 1483.95 1899.12 1483.95 1890.89C1483.95 1882.65 1490.61 1875.99 1498.84 1875.99C1507.07 1875.99 1513.75 1882.65 1513.75 1890.89C1513.75 1899.12 1507.07 1905.79 1498.84 1905.79ZM1498.84 1859.33C1481.24 1859.33 1466.97 1873.61 1466.97 1891.21C1466.97 1908.81 1498.84 1947.95 1498.84 1947.95C1498.84 1947.95 1530.72 1908.81 1530.72 1891.21C1530.72 1873.61 1516.45 1859.33 1498.84 1859.33Z" fill="#006FE0"/>
<path d="M1734.8 1306.23C1726.57 1306.23 1719.89 1299.56 1719.89 1291.33C1719.89 1283.09 1726.57 1276.43 1734.8 1276.43C1743.03 1276.43 1749.69 1283.09 1749.69 1291.33C1749.69 1299.56 1743.03 1306.23 1734.8 1306.23ZM1734.8 1259.77C1717.19 1259.77 1702.92 1274.05 1702.92 1291.65C1702.92 1309.25 1734.8 1348.39 1734.8 1348.39C1734.8 1348.39 1766.67 1309.25 1766.67 1291.65C1766.67 1274.05 1752.4 1259.77 1734.8 1259.77Z" fill="#006FE0"/>
<path d="M2718.73 2112.81C2718.73 2112.81 2715.24 2169.17 2704.33 2169.99C2702.88 2170.09 2649.01 2170.09 2649.01 2170.09H2579.48C2579.48 2170.09 2580.71 2153.13 2600.8 2149.63C2620.89 2146.12 2654.55 2132 2666.72 2105.43C2679.52 2077.48 2718.73 2112.81 2718.73 2112.81Z" fill="#163560"/>
<path d="M2722.69 2116.72C2722.69 2116.72 2701.79 2123.72 2685.47 2123.72C2667.27 2123.72 2650.72 2118.76 2650.72 2118.76C2650.72 2118.76 2646.79 2080.69 2625.13 1996.84C2613.77 1952.89 2597.56 1896.37 2574.49 1826.16C2510.71 1632.08 2491.32 1518.55 2489.55 1507.8C2489.45 1507.24 2489.41 1506.95 2489.41 1506.95L2489.61 1506.85L2685.71 1420.76C2685.71 1420.76 2661.48 1688.24 2692.39 1790.91C2696.72 1805.25 2700.44 1821.97 2703.61 1840.09C2723.15 1951.61 2722.69 2116.72 2722.69 2116.72" fill="#004183"/>
<path d="M2703.61 1840.09L2625.13 1996.84C2613.77 1952.89 2597.56 1896.37 2574.49 1826.16C2510.71 1632.08 2491.32 1518.55 2489.55 1507.8C2489.56 1507.48 2489.59 1507.17 2489.61 1506.85L2685.71 1420.76C2685.71 1420.76 2661.48 1688.24 2692.39 1790.91C2696.72 1805.25 2700.44 1821.97 2703.61 1840.09Z" fill="#003264"/>
<path d="M2565.57 2112.81C2565.57 2112.81 2562.08 2169.17 2551.17 2169.99C2549.72 2170.09 2425.73 2172.24 2425.73 2172.24C2425.73 2172.24 2427.55 2153.13 2447.64 2149.63C2467.75 2146.12 2501.39 2132 2513.56 2105.43C2526.37 2077.48 2565.57 2112.81 2565.57 2112.81Z" fill="#163560"/>
<path d="M2454.4 1427.07C2454.4 1427.07 2451.85 1600.39 2481.84 1813.21C2511.83 2026.03 2501.67 2116.36 2501.67 2116.36C2501.67 2116.36 2522.27 2123.04 2530.59 2123.72C2551.77 2125.44 2573.49 2118.75 2573.49 2118.75C2573.49 2118.75 2616.41 1905.85 2604.11 1799.33C2591.8 1692.81 2662.88 1433.83 2662.88 1433.83L2454.4 1427.07Z" fill="#004183"/>
<path d="M2610.95 1014.65C2610.95 1014.65 2712.21 1117.48 2717.15 1157.47C2722.07 1197.45 2668.27 1260 2668.27 1260L2610.95 1014.65Z" fill="#DDB800"/>
<path d="M2593.44 1021.45L2555.17 1046.55L2499.87 1036.24C2500.63 1031.77 2504.28 1013.28 2507.61 996.507C2507.81 995.52 2508.01 994.533 2508.2 993.56C2511.05 979.307 2513.51 967.053 2513.51 967.053L2565.16 944.267L2584.43 935.773C2584.37 936.067 2582.93 951.6 2582.73 953.867C2579.12 994.107 2593.44 1021.45 2593.44 1021.45" fill="#FFB27D"/>
<path d="M2505.11 1009.16C2506.17 1008.71 2580.63 989.013 2587.75 991.36C2594.87 993.707 2599.08 1007.48 2599.08 1007.48L2491.91 1031.72C2491.91 1031.72 2491.41 1014.92 2505.11 1009.16Z" fill="#FFD400"/>
<path d="M2690.48 1448.47C2679.37 1499.13 2494.52 1505.15 2446.88 1459.15C2441.45 1453.91 2441.19 1429.52 2443.23 1396.63C2447.23 1332.37 2460.07 1235.72 2460.57 1186.35C2460.81 1162.49 2464.09 1138.11 2468.45 1115.96C2477.75 1068.75 2491.91 1031.71 2491.91 1031.71C2491.91 1031.71 2582.19 1002.52 2599.08 1007.48C2680.48 1031.4 2701.59 1397.8 2690.48 1448.47" fill="#FFD400"/>
<path d="M2443.23 1396.63C2447.23 1332.37 2460.07 1235.72 2460.57 1186.35C2460.81 1162.49 2464.09 1138.11 2468.45 1115.96L2522.77 1106.37C2522.77 1106.37 2575.87 1323.27 2443.23 1396.63Z" fill="#F2C900"/>
<path d="M2472.64 1307.07C2472.64 1307.07 2476.35 1315.92 2468.57 1321.85C2460.8 1327.8 2455.76 1337.43 2457.53 1344.47C2459.32 1351.49 2476.37 1362.97 2482.28 1361.12C2488.2 1359.27 2498.91 1354.49 2498.93 1346.29C2498.95 1342.36 2507.03 1313.73 2492.61 1302.63C2478.2 1291.52 2472.64 1307.07 2472.64 1307.07" fill="#FFB27D"/>
<path d="M2533.55 1021.16C2533.55 1021.16 2480.41 1028.63 2438.2 1090.81C2396 1153.01 2368.23 1199.27 2376 1221.68C2383.77 1244.09 2454.64 1321.84 2466.87 1321.84C2479.08 1321.84 2498.8 1312.96 2499.91 1292.96C2499.91 1292.96 2452.64 1217.99 2462.47 1206.79C2466.67 1202 2524.61 1153.01 2533.27 1175.23C2547.57 1211.99 2533.55 1021.16 2533.55 1021.16Z" fill="#FFD400"/>
<path d="M2578.85 954.573C2567.51 973.787 2525.24 990.4 2507.61 996.507C2507.81 995.52 2508.01 994.533 2508.2 993.56C2511.05 979.307 2513.51 967.053 2513.51 967.053L2565.16 944.267C2576.57 944.107 2583.53 946.667 2578.85 954.573" fill="#FCA56B"/>
<path d="M2494.04 963.92C2494.04 963.92 2577.24 989.867 2592.61 937.8C2607.97 885.747 2629.07 854.027 2576.59 835.253C2524.11 816.48 2507.88 833.28 2498.52 849.413C2489.17 865.547 2472.79 955.827 2494.04 963.92Z" fill="#FFB27D"/>
<path d="M2501.79 844.4C2501.79 844.4 2507.09 904.987 2519.63 902.36C2532.16 899.72 2543.52 897.773 2541.69 916.04C2539.85 934.307 2522.48 955.387 2561.09 958.627C2599.71 961.853 2655.23 862.267 2644.61 843.413C2614 789.013 2457.55 778.027 2501.79 844.4Z" fill="#163560"/>
<path d="M1854.68 1844.03L1656.29 1519.72C1654.59 1516.93 1650.95 1516.05 1648.16 1517.76C1645.37 1519.47 1644.51 1523.11 1646.2 1525.89L1840.81 1844.03H1854.68" fill="#004183"/>
<path d="M1851.04 1715.47C1851.04 1722.96 1844.97 1729.03 1837.48 1729.03C1830 1729.03 1823.93 1722.96 1823.93 1715.47C1823.93 1707.99 1830 1701.92 1837.48 1701.92C1844.97 1701.92 1851.04 1707.99 1851.04 1715.47Z" fill="#FFD400"/>
<path d="M1837.48 1742.8C1822.39 1742.8 1810.15 1730.56 1810.15 1715.47C1810.15 1700.37 1822.39 1688.13 1837.48 1688.13C1852.57 1688.13 1864.81 1700.37 1864.81 1715.47C1864.81 1730.56 1852.57 1742.8 1837.48 1742.8ZM1837.48 1682.13C1819.08 1682.13 1804.15 1697.05 1804.15 1715.47C1804.15 1733.88 1819.08 1748.8 1837.48 1748.8C1855.89 1748.8 1870.81 1733.88 1870.81 1715.47C1870.81 1697.05 1855.89 1682.13 1837.48 1682.13Z" fill="#FFD400"/>
<path d="M3463.85 2173.27H536.152C533.702 2173.27 531.701 2171.25 531.701 2168.81C531.701 2166.36 533.702 2164.36 536.152 2164.36H3463.85C3466.29 2164.36 3468.29 2166.36 3468.29 2168.81C3468.29 2171.25 3466.29 2173.27 3463.85 2173.27Z" fill="#283250"/>
<path d="M2538.9 1471.46C2539.55 1472.88 2539.78 1474.15 2539.6 1475.29C2539.36 1476.81 2538.52 1477.99 2537.07 1478.83C2535.68 1479.63 2534.16 1479.89 2532.5 1479.63C2531.36 1479.45 2530.34 1479.02 2529.42 1478.34C2528.51 1477.66 2527.78 1476.74 2527.24 1475.59L2520.13 1460.61C2519.62 1459.56 2519.02 1458.76 2518.33 1458.21C2517.69 1457.62 2516.87 1457.25 2515.88 1457.09L2511.26 1456.36L2509.24 1469.09C2508.92 1471.08 2508.1 1472.58 2506.78 1473.58C2505.46 1474.54 2503.8 1474.86 2501.81 1474.55C2499.82 1474.23 2498.32 1473.41 2497.32 1472.09C2496.37 1470.72 2496.05 1469.04 2496.37 1467.05L2502.4 1429.01C2502.71 1427.06 2503.47 1425.65 2504.67 1424.77C2505.88 1423.9 2507.46 1423.61 2509.4 1423.92L2527.25 1426.75C2533.32 1427.71 2537.66 1429.76 2540.27 1432.9C2542.94 1435.99 2543.88 1440.03 2543.09 1445.01C2542.49 1448.8 2540.94 1451.86 2538.43 1454.18C2535.93 1456.46 2532.71 1457.75 2528.78 1458.05C2530.3 1458.53 2531.57 1459.27 2532.58 1460.25C2533.64 1461.25 2534.61 1462.64 2535.49 1464.43L2538.9 1471.46ZM2521.77 1447.97C2524.66 1448.43 2526.8 1448.3 2528.17 1447.6C2529.6 1446.9 2530.47 1445.53 2530.79 1443.49C2531.12 1441.41 2530.72 1439.81 2529.58 1438.71C2528.5 1437.57 2526.51 1436.76 2523.62 1436.31L2514.52 1434.86L2512.67 1446.53L2521.77 1447.97Z" fill="white"/>
<path d="M2557.99 1479.71C2556.02 1479.74 2554.5 1479.24 2553.43 1478.2C2552.35 1477.17 2551.8 1475.66 2551.77 1473.7L2551.1 1435.18C2551.07 1433.22 2551.57 1431.69 2552.61 1430.62C2553.64 1429.55 2555.15 1428.99 2557.11 1428.96L2571.66 1428.71C2577.27 1428.61 2582.11 1429.56 2586.18 1431.55C2590.29 1433.5 2593.46 1436.35 2595.69 1440.1C2597.91 1443.86 2599.07 1448.35 2599.16 1453.58C2599.25 1458.86 2598.25 1463.44 2596.16 1467.31C2594.11 1471.14 2591.07 1474.1 2587.02 1476.18C2583.03 1478.27 2578.2 1479.36 2572.53 1479.46L2557.99 1479.71ZM2571.41 1468.82C2576.36 1468.74 2580.03 1467.47 2582.44 1465.03C2584.89 1462.54 2586.07 1458.8 2585.99 1453.81C2585.9 1448.82 2584.59 1445.14 2582.05 1442.79C2579.56 1440.43 2575.85 1439.29 2570.9 1439.38L2564.43 1439.49L2564.93 1468.93L2571.41 1468.82Z" fill="white"/>
<path d="M2619.2 1476.76C2617.28 1477.15 2615.69 1476.93 2614.44 1476.1C2613.2 1475.27 2612.38 1473.9 2612 1471.97L2604.39 1434.21C2604 1432.28 2604.22 1430.69 2605.04 1429.45C2605.87 1428.2 2607.25 1427.39 2609.18 1427L2633.6 1422.08C2635.62 1421.67 2637.24 1421.78 2638.44 1422.42C2639.65 1423.06 2640.41 1424.18 2640.73 1425.78C2641.42 1429.17 2639.71 1431.27 2635.62 1432.1L2617.83 1435.68L2619.74 1445.14L2636.11 1441.84C2640.21 1441.02 2642.59 1442.27 2643.26 1445.62C2643.58 1447.22 2643.31 1448.54 2642.45 1449.6C2641.58 1450.65 2640.14 1451.39 2638.12 1451.79L2621.74 1455.09L2623.82 1465.4L2641.61 1461.81C2645.7 1460.99 2648.09 1462.27 2648.77 1465.66C2649.09 1467.26 2648.82 1468.59 2647.96 1469.64C2647.09 1470.7 2645.65 1471.43 2643.63 1471.84L2619.2 1476.76Z" fill="white"/>
</svg>
